# xmcd
#
# Track frame offsets: 
#        150
#        33552
#        54104
#        70256
#        108341
#        131651
#        152636
#        182518
#        210870
#        241888
#        277960
#        295344
#        317485
#
# Disc length: 4533 seconds
#
# Revision: 0
# Processed by: cddbd v1.5.2PL0 Copyright (c) Steve Scherf et al.
# Submitted via: ExactAudioCopy v0.99pb5
#
DISCID=ac11b30d
DTITLE=Rick Estrin And The Nightcats - You Asked For It...Live!
DYEAR=2014
DGENRE=Blues
TTITLE0=Handle With Care
TTITLE1=Clothes Line
TTITLE2=New Old Lady
TTITLE3=My Next Ex-Wife
TTITLE4=Baker Man Blues
TTITLE5=Keep Your Big Mouth Shut
TTITLE6=Smart Like Einstein
TTITLE7=That's Big
TTITLE8=You Gonna Lie
TTITLE9=Never Trust A Woman
TTITLE10=Dump That Chump
TTITLE11=Don't Do It
TTITLE12=Too Close Together
EXTD=
EXTT0=
EXTT1=
EXTT2=
EXTT3=
EXTT4=
EXTT5=
EXTT6=
EXTT7=
EXTT8=
EXTT9=
EXTT10=
EXTT11=
EXTT12=
PLAYORDER=
